<?xml version="1.0" encoding="utf-8"?>
<svg version="1.1" preserveAspectRatio="xMidYMid meet" viewBox="0 0 640 640" width="640" height="640" xmlns="http://www.w3.org/2000/svg">
  <defs>
    <path d="M214.9 264.9C214.9 310.23 178.09 347.04 132.76 347.04C87.42 347.04 50.61 310.23 50.61 264.9C50.61 219.56 87.42 182.76 132.76 182.76C178.09 182.76 214.9 219.56 214.9 264.9Z" id="aehRPOZL8"/>
    <path d="M606.33 135.92C606.33 181.25 569.52 218.06 524.18 218.06C478.85 218.06 442.04 181.25 442.04 135.92C442.04 90.58 478.85 53.78 524.18 53.78C569.52 53.78 606.33 90.58 606.33 135.92Z" id="j2iDBfMmfv"/>
    <path d="M460 437.35C460 482.68 423.19 519.49 377.86 519.49C332.52 519.49 295.71 482.68 295.71 437.35C295.71 392.01 332.52 355.2 377.86 355.2C423.19 355.2 460 392.01 460 437.35Z" id="a10nQeMWQX"/>
    <path d="M242.45 247.04L470 247.04L470 251.12L242.45 251.12L242.45 247.04Z" id="b1GlF0Aati"/>
    <path d="M257.35 277.24L364.49 277.24L364.49 281.33L257.35 281.33L257.35 277.24Z" id="aCN8OwU6A"/>
    <path d="M124.08 239.49C124.08 249.06 116.31 256.84 106.73 256.84C97.16 256.84 89.39 249.06 89.39 239.49C89.39 229.92 97.16 222.14 106.73 222.14C116.31 222.14 124.08 229.92 124.08 239.49Z" id="h7fBF5hBt"/>
    <path d="M354.69 420C354.69 429.57 346.92 437.35 337.35 437.35C327.77 437.35 320 429.57 320 420C320 410.43 327.77 402.65 337.35 402.65C346.92 402.65 354.69 410.43 354.69 420Z" id="b64OFzqxlG"/>
    <path d="M497.55 132.55C497.55 142.13 489.78 149.9 480.2 149.9C470.63 149.9 462.86 142.13 462.86 132.55C462.86 122.98 470.63 115.2 480.2 115.2C489.78 115.2 497.55 122.98 497.55 132.55Z" id="eu1GMSSh"/>
    <path d="M66.43 576.2L272.03 478.69L273.78 482.37L68.18 579.89L66.43 576.2Z" id="b25aYOeApd"/>
    <path d="M60.2 603.34L265.8 505.83L267.55 509.52L61.95 607.03L60.2 603.34Z" id="a16BwOTah4"/>
    <path d="M419.58 13.76L466.88 47.71L464.5 51.03L417.2 17.08L419.58 13.76Z" id="c1eXFLA7nJ"/>
    <path d="M415.55 29.33L462.86 63.29L460.48 66.6L413.17 32.65L415.55 29.33Z" id="ba3BRAH0sB"/>
    <path d="M401.41 43.56L448.72 77.51L446.34 80.83L399.03 46.87L401.41 43.56Z" id="a3uWqZEvx7"/>
    <path d="M247.55 315.92L377.86 315.92L377.86 320L247.55 320L247.55 315.92Z" id="amjarU7VH"/>
    <path d="M80.2 623.34L285.8 525.83L287.55 529.52L81.95 627.03L80.2 623.34Z" id="d1zRzPl89h"/>
  </defs>
  <g>
    <g>
      <g>
        <path d="M214.9 264.9C214.9 310.23 178.09 347.04 132.76 347.04C87.42 347.04 50.61 310.23 50.61 264.9C50.61 219.56 87.42 182.76 132.76 182.76C178.09 182.76 214.9 219.56 214.9 264.9Z" transform="matrix(1, 0, 0, 1, 0, 0)" opacity="1" fill="#b5f9f4" fill-opacity="1"/>
        <g>
          <path d="M214.9 264.9C214.9 310.23 178.09 347.04 132.76 347.04C87.42 347.04 50.61 310.23 50.61 264.9C50.61 219.56 87.42 182.76 132.76 182.76C178.09 182.76 214.9 219.56 214.9 264.9Z" transform="matrix(1, 0, 0, 1, 0, 0)" opacity="1" fill-opacity="0" stroke="#25349b" stroke-width="4" stroke-opacity="1"/>
        </g>
      </g>
      <g>
        <path d="M606.33 135.92C606.33 181.25 569.52 218.06 524.18 218.06C478.85 218.06 442.04 181.25 442.04 135.92C442.04 90.58 478.85 53.78 524.18 53.78C569.52 53.78 606.33 90.58 606.33 135.92Z" transform="matrix(1, 0, 0, 1, 0, 0)" opacity="1" fill="#b5f9f4" fill-opacity="1"/>
        <g>
          <path d="M606.33 135.92C606.33 181.25 569.52 218.06 524.18 218.06C478.85 218.06 442.04 181.25 442.04 135.92C442.04 90.58 478.85 53.78 524.18 53.78C569.52 53.78 606.33 90.58 606.33 135.92Z" transform="matrix(1, 0, 0, 1, 0, 0)" opacity="1" fill-opacity="0" stroke="#25349b" stroke-width="4" stroke-opacity="1"/>
        </g>
      </g>
      <g>
        <path d="M460 437.35C460 482.68 423.19 519.49 377.86 519.49C332.52 519.49 295.71 482.68 295.71 437.35C295.71 392.01 332.52 355.2 377.86 355.2C423.19 355.2 460 392.01 460 437.35Z" transform="matrix(1, 0, 0, 1, 0, 0)" opacity="1" fill="#b5f9f4" fill-opacity="1"/>
        <g>
          <path d="M460 437.35C460 482.68 423.19 519.49 377.86 519.49C332.52 519.49 295.71 482.68 295.71 437.35C295.71 392.01 332.52 355.2 377.86 355.2C423.19 355.2 460 392.01 460 437.35Z" transform="matrix(1, 0, 0, 1, 0, 0)" opacity="1" fill-opacity="0" stroke="#25349b" stroke-width="4" stroke-opacity="1"/>
        </g>
      </g>
      <g/>
      <g/>
      <g>
        <path d="M124.08 239.49C124.08 249.06 116.31 256.84 106.73 256.84C97.16 256.84 89.39 249.06 89.39 239.49C89.39 229.92 97.16 222.14 106.73 222.14C116.31 222.14 124.08 229.92 124.08 239.49Z" transform="matrix(1, 0, 0, 1, 0, 0)" opacity="1" fill="#d4fcfa" fill-opacity="1"/>
        <g>
          <path d="M124.08 239.49C124.08 249.06 116.31 256.84 106.73 256.84C97.16 256.84 89.39 249.06 89.39 239.49C89.39 229.92 97.16 222.14 106.73 222.14C116.31 222.14 124.08 229.92 124.08 239.49Z" transform="matrix(1, 0, 0, 1, 0, 0)" opacity="1" fill-opacity="0" stroke="#b5f9f4" stroke-width="0" stroke-opacity="1"/>
        </g>
      </g>
      <g>
        <path d="M354.69 420C354.69 429.57 346.92 437.35 337.35 437.35C327.77 437.35 320 429.57 320 420C320 410.43 327.77 402.65 337.35 402.65C346.92 402.65 354.69 410.43 354.69 420Z" transform="matrix(1, 0, 0, 1, 0, 0)" opacity="1" fill="#d4fcfa" fill-opacity="1"/>
        <g>
          <path d="M354.69 420C354.69 429.57 346.92 437.35 337.35 437.35C327.77 437.35 320 429.57 320 420C320 410.43 327.77 402.65 337.35 402.65C346.92 402.65 354.69 410.43 354.69 420Z" transform="matrix(1, 0, 0, 1, 0, 0)" opacity="1" fill-opacity="0" stroke="#b5f9f4" stroke-width="0" stroke-opacity="1"/>
        </g>
      </g>
      <g>
        <path d="M497.55 132.55C497.55 142.13 489.78 149.9 480.2 149.9C470.63 149.9 462.86 142.13 462.86 132.55C462.86 122.98 470.63 115.2 480.2 115.2C489.78 115.2 497.55 122.98 497.55 132.55Z" transform="matrix(1, 0, 0, 1, 0, 0)" opacity="1" fill="#d4fcfa" fill-opacity="1"/>
        <g>
          <path d="M497.55 132.55C497.55 142.13 489.78 149.9 480.2 149.9C470.63 149.9 462.86 142.13 462.86 132.55C462.86 122.98 470.63 115.2 480.2 115.2C489.78 115.2 497.55 122.98 497.55 132.55Z" transform="matrix(1, 0, 0, 1, 0, 0)" opacity="1" fill-opacity="0" stroke="#b5f9f4" stroke-width="0" stroke-opacity="1"/>
        </g>
      </g>
      <g/>
      <g/>
      <g/>
      <g/>
      <g/>
      <g/>
      <g/>
    </g>
  </g>
  <line style="fill-opacity: 0; stroke: rgb(37, 52, 155); stroke-width: 4px;" x1="232.043" y1="248.157" x2="384.51" y2="248.157"/>
  <line style="fill-opacity: 0; stroke: rgb(37, 52, 155); stroke-width: 4px;" x1="329.7406819680603" y1="245.32129511846938" x2="329.7406819680603" y2="245.32129511846938"/>
  <line style="fill-opacity: 0; stroke: rgb(37, 52, 155); stroke-width: 4px;" x1="228.171" y1="280.32" x2="327.966" y2="280.32"/>
  <line style="fill-opacity: 0; stroke: rgb(37, 52, 155); stroke-width: 4px;" x1="222.994" y1="312.351" x2="322.789" y2="312.351"/>
  <line style="fill-opacity: 0; stroke: rgb(37, 52, 155); stroke-width: 4px;" x1="257.58735987439286" y1="530.8881160101416" x2="257.58735987439286" y2="530.8881160101416"/>
  <line style="fill-opacity: 0; stroke: rgb(37, 52, 155); stroke-width: 4px;" x1="270.524" y1="455.229" x2="31.542" y2="554.218"/>
  <line style="fill-opacity: 0; stroke: rgb(37, 52, 155); stroke-width: 4px;" x1="300.183" y1="498.153" x2="126.894" y2="569.932"/>
  <line style="fill-opacity: 0; stroke: rgb(37, 52, 155); stroke-width: 4px;" x1="279.335" y1="480.305" x2="203.303" y2="511.799"/>
  <line style="fill-opacity: 0; stroke: rgb(37, 52, 155); stroke-width: 4px;" x1="547.643714690936" y1="234.33796220516845" x2="574.3188496428069" y2="298.7374347841075"/>
  <line style="fill-opacity: 0; stroke: rgb(37, 52, 155); stroke-width: 4px;" x1="569.2897113190363" y1="229.28722965861172" x2="584.8408638695661" y2="266.8310330566337"/>
  <line style="fill-opacity: 0; stroke: rgb(37, 52, 155); stroke-width: 4px;" x1="585.8849754005798" y1="218.4642313445616" x2="609.419953669675" y2="275.28269507196734"/>
</svg>